<svg width="395" height="240" viewBox="0 0 395 240" fill="none" xmlns="http://www.w3.org/2000/svg">
<circle cx="198" cy="70" r="70" fill="#D9D9D9"/>
<path d="M191.232 84.27L187.822 34H208.282L204.872 84.27H191.232ZM198.052 111.88C194.972 111.88 192.442 110.89 190.462 108.91C188.482 106.93 187.492 104.583 187.492 101.87C187.492 99.0833 188.482 96.7733 190.462 94.94C192.442 93.0333 194.972 92.08 198.052 92.08C201.205 92.08 203.735 93.0333 205.642 94.94C207.622 96.7733 208.612 99.0833 208.612 101.87C208.612 104.583 207.622 106.93 205.642 108.91C203.735 110.89 201.205 111.88 198.052 111.88Z" fill="white"/>
<path d="M164.175 193.256C162.468 193.256 160.879 192.968 159.407 192.392C157.956 191.816 156.698 191.016 155.631 189.992C154.564 188.947 153.732 187.731 153.135 186.344C152.538 184.957 152.239 183.443 152.239 181.8C152.239 180.157 152.538 178.643 153.135 177.256C153.732 175.869 154.564 174.664 155.631 173.64C156.698 172.595 157.956 171.784 159.407 171.208C160.858 170.632 162.447 170.344 164.175 170.344C165.882 170.344 167.45 170.632 168.879 171.208C170.33 171.763 171.588 172.563 172.655 173.608C173.743 174.632 174.575 175.837 175.151 177.224C175.748 178.611 176.047 180.136 176.047 181.8C176.047 183.464 175.748 184.989 175.151 186.376C174.575 187.763 173.743 188.979 172.655 190.024C171.588 191.048 170.33 191.848 168.879 192.424C167.45 192.979 165.882 193.256 164.175 193.256ZM164.175 190.408C165.412 190.408 166.554 190.195 167.599 189.768C168.666 189.341 169.583 188.744 170.351 187.976C171.14 187.187 171.748 186.269 172.175 185.224C172.623 184.179 172.847 183.037 172.847 181.8C172.847 180.563 172.623 179.421 172.175 178.376C171.748 177.331 171.14 176.424 170.351 175.656C169.583 174.867 168.666 174.259 167.599 173.832C166.554 173.405 165.412 173.192 164.175 173.192C162.916 173.192 161.754 173.405 160.687 173.832C159.642 174.259 158.724 174.867 157.935 175.656C157.146 176.424 156.527 177.331 156.079 178.376C155.652 179.421 155.439 180.563 155.439 181.8C155.439 183.037 155.652 184.179 156.079 185.224C156.527 186.269 157.146 187.187 157.935 187.976C158.724 188.744 159.642 189.341 160.687 189.768C161.754 190.195 162.916 190.408 164.175 190.408ZM187.754 193.192C186.047 193.192 184.533 192.819 183.21 192.072C181.887 191.325 180.842 190.301 180.074 189C179.306 187.677 178.922 186.184 178.922 184.52C178.922 182.835 179.306 181.341 180.074 180.04C180.842 178.739 181.887 177.725 183.21 177C184.533 176.253 186.047 175.88 187.754 175.88C189.439 175.88 190.943 176.253 192.266 177C193.61 177.725 194.655 178.739 195.402 180.04C196.17 181.32 196.554 182.813 196.554 184.52C196.554 186.205 196.17 187.699 195.402 189C194.655 190.301 193.61 191.325 192.266 192.072C190.943 192.819 189.439 193.192 187.754 193.192ZM187.754 190.504C188.842 190.504 189.813 190.259 190.666 189.768C191.541 189.277 192.223 188.584 192.714 187.688C193.205 186.771 193.45 185.715 193.45 184.52C193.45 183.304 193.205 182.259 192.714 181.384C192.223 180.488 191.541 179.795 190.666 179.304C189.813 178.813 188.842 178.568 187.754 178.568C186.666 178.568 185.695 178.813 184.842 179.304C183.989 179.795 183.306 180.488 182.794 181.384C182.282 182.259 182.026 183.304 182.026 184.52C182.026 185.715 182.282 186.771 182.794 187.688C183.306 188.584 183.989 189.277 184.842 189.768C185.695 190.259 186.666 190.504 187.754 190.504ZM209.795 193.192C208.387 193.192 207.096 192.872 205.923 192.232C204.771 191.571 203.843 190.6 203.139 189.32C202.456 188.04 202.115 186.44 202.115 184.52C202.115 182.6 202.445 181 203.107 179.72C203.789 178.44 204.707 177.48 205.859 176.84C207.032 176.2 208.344 175.88 209.795 175.88C211.459 175.88 212.931 176.243 214.211 176.968C215.491 177.693 216.504 178.707 217.251 180.008C217.997 181.288 218.371 182.792 218.371 184.52C218.371 186.248 217.997 187.763 217.251 189.064C216.504 190.365 215.491 191.379 214.211 192.104C212.931 192.829 211.459 193.192 209.795 193.192ZM200.803 199.208V176.04H203.747V180.616L203.555 184.552L203.875 188.488V199.208H200.803ZM209.539 190.504C210.627 190.504 211.597 190.259 212.451 189.768C213.325 189.277 214.008 188.584 214.499 187.688C215.011 186.771 215.267 185.715 215.267 184.52C215.267 183.304 215.011 182.259 214.499 181.384C214.008 180.488 213.325 179.795 212.451 179.304C211.597 178.813 210.627 178.568 209.539 178.568C208.472 178.568 207.501 178.813 206.627 179.304C205.773 179.795 205.091 180.488 204.579 181.384C204.088 182.259 203.843 183.304 203.843 184.52C203.843 185.715 204.088 186.771 204.579 187.688C205.091 188.584 205.773 189.277 206.627 189.768C207.501 190.259 208.472 190.504 209.539 190.504ZM227.479 193.192C226.071 193.192 224.727 193 223.447 192.616C222.188 192.232 221.196 191.763 220.471 191.208L221.751 188.776C222.476 189.267 223.372 189.683 224.439 190.024C225.506 190.365 226.594 190.536 227.703 190.536C229.132 190.536 230.156 190.333 230.775 189.928C231.415 189.523 231.735 188.957 231.735 188.232C231.735 187.699 231.543 187.283 231.159 186.984C230.775 186.685 230.263 186.461 229.623 186.312C229.004 186.163 228.311 186.035 227.543 185.928C226.775 185.8 226.007 185.651 225.239 185.48C224.471 185.288 223.767 185.032 223.127 184.712C222.487 184.371 221.975 183.912 221.591 183.336C221.207 182.739 221.015 181.949 221.015 180.968C221.015 179.944 221.303 179.048 221.879 178.28C222.455 177.512 223.266 176.925 224.311 176.52C225.378 176.093 226.636 175.88 228.087 175.88C229.196 175.88 230.316 176.019 231.447 176.296C232.599 176.552 233.538 176.925 234.263 177.416L232.951 179.848C232.183 179.336 231.383 178.984 230.551 178.792C229.719 178.6 228.887 178.504 228.055 178.504C226.711 178.504 225.708 178.728 225.047 179.176C224.386 179.603 224.055 180.157 224.055 180.84C224.055 181.416 224.247 181.864 224.631 182.184C225.036 182.483 225.548 182.717 226.167 182.888C226.807 183.059 227.511 183.208 228.279 183.336C229.047 183.443 229.815 183.592 230.583 183.784C231.351 183.955 232.044 184.2 232.663 184.52C233.303 184.84 233.815 185.288 234.199 185.864C234.604 186.44 234.807 187.208 234.807 188.168C234.807 189.192 234.508 190.077 233.911 190.824C233.314 191.571 232.471 192.157 231.383 192.584C230.295 192.989 228.994 193.192 227.479 193.192ZM238.806 185.928L238.23 170.6H241.846L241.238 185.928H238.806ZM240.054 193.192C239.457 193.192 238.956 192.989 238.55 192.584C238.145 192.179 237.942 191.699 237.942 191.144C237.942 190.547 238.145 190.056 238.55 189.672C238.956 189.288 239.457 189.096 240.054 189.096C240.652 189.096 241.142 189.288 241.526 189.672C241.91 190.056 242.102 190.547 242.102 191.144C242.102 191.699 241.91 192.179 241.526 192.584C241.142 192.989 240.652 193.192 240.054 193.192ZM10.1224 232.256C8.41571 232.256 6.78371 232 5.22638 231.488C3.66904 230.955 2.44238 230.272 1.54638 229.44L2.73038 226.944C3.58371 227.691 4.67171 228.309 5.99438 228.8C7.31704 229.291 8.69304 229.536 10.1224 229.536C11.4237 229.536 12.4797 229.387 13.2904 229.088C14.101 228.789 14.6984 228.384 15.0824 227.872C15.4664 227.339 15.6584 226.741 15.6584 226.08C15.6584 225.312 15.4024 224.693 14.8904 224.224C14.3997 223.755 13.749 223.381 12.9384 223.104C12.149 222.805 11.2744 222.549 10.3144 222.336C9.35438 222.123 8.38371 221.877 7.40238 221.6C6.44238 221.301 5.55704 220.928 4.74638 220.48C3.95704 220.032 3.31704 219.435 2.82638 218.688C2.33571 217.92 2.09038 216.939 2.09038 215.744C2.09038 214.592 2.38904 213.536 2.98638 212.576C3.60504 211.595 4.54371 210.816 5.80238 210.24C7.08238 209.643 8.70371 209.344 10.6664 209.344C11.9677 209.344 13.2584 209.515 14.5384 209.856C15.8184 210.197 16.9277 210.688 17.8664 211.328L16.8104 213.888C15.8504 213.248 14.837 212.789 13.7704 212.512C12.7037 212.213 11.669 212.064 10.6664 212.064C9.40771 212.064 8.37304 212.224 7.56238 212.544C6.75171 212.864 6.15438 213.291 5.77038 213.824C5.40771 214.357 5.22638 214.955 5.22638 215.616C5.22638 216.405 5.47171 217.035 5.96238 217.504C6.47438 217.973 7.12504 218.347 7.91438 218.624C8.72504 218.901 9.61038 219.157 10.5704 219.392C11.5304 219.605 12.4904 219.851 13.4504 220.128C14.4317 220.405 15.317 220.768 16.1064 221.216C16.917 221.664 17.5677 222.261 18.0584 223.008C18.549 223.755 18.7944 224.715 18.7944 225.888C18.7944 227.019 18.485 228.075 17.8664 229.056C17.2477 230.016 16.2877 230.795 14.9864 231.392C13.7064 231.968 12.085 232.256 10.1224 232.256ZM30.2854 232.192C28.5787 232.192 27.064 231.819 25.7414 231.072C24.4187 230.325 23.3734 229.301 22.6054 228C21.8374 226.677 21.4534 225.184 21.4534 223.52C21.4534 221.835 21.8374 220.341 22.6054 219.04C23.3734 217.739 24.4187 216.725 25.7414 216C27.064 215.253 28.5787 214.88 30.2854 214.88C31.9707 214.88 33.4747 215.253 34.7974 216C36.1414 216.725 37.1867 217.739 37.9334 219.04C38.7014 220.32 39.0854 221.813 39.0854 223.52C39.0854 225.205 38.7014 226.699 37.9334 228C37.1867 229.301 36.1414 230.325 34.7974 231.072C33.4747 231.819 31.9707 232.192 30.2854 232.192ZM30.2854 229.504C31.3734 229.504 32.344 229.259 33.1974 228.768C34.072 228.277 34.7547 227.584 35.2454 226.688C35.736 225.771 35.9814 224.715 35.9814 223.52C35.9814 222.304 35.736 221.259 35.2454 220.384C34.7547 219.488 34.072 218.795 33.1974 218.304C32.344 217.813 31.3734 217.568 30.2854 217.568C29.1974 217.568 28.2267 217.813 27.3734 218.304C26.52 218.795 25.8374 219.488 25.3254 220.384C24.8134 221.259 24.5574 222.304 24.5574 223.52C24.5574 224.715 24.8134 225.771 25.3254 226.688C25.8374 227.584 26.52 228.277 27.3734 228.768C28.2267 229.259 29.1974 229.504 30.2854 229.504ZM64.5499 214.88C65.9152 214.88 67.1205 215.147 68.1659 215.68C69.2112 216.213 70.0219 217.024 70.5979 218.112C71.1952 219.2 71.4939 220.576 71.4939 222.24V232H68.4219V222.592C68.4219 220.949 68.0379 219.712 67.2699 218.88C66.5019 218.048 65.4245 217.632 64.0379 217.632C63.0139 217.632 62.1179 217.845 61.3499 218.272C60.5819 218.699 59.9845 219.328 59.5579 220.16C59.1525 220.992 58.9499 222.027 58.9499 223.264V232H55.8779V222.592C55.8779 220.949 55.4939 219.712 54.7259 218.88C53.9792 218.048 52.9019 217.632 51.4939 217.632C50.4912 217.632 49.6059 217.845 48.8379 218.272C48.0699 218.699 47.4725 219.328 47.0459 220.16C46.6192 220.992 46.4059 222.027 46.4059 223.264V232H43.3339V215.04H46.2779V219.552L45.7979 218.4C46.3312 217.291 47.1525 216.427 48.2619 215.808C49.3712 215.189 50.6619 214.88 52.1339 214.88C53.7552 214.88 55.1525 215.285 56.3259 216.096C57.4992 216.885 58.2672 218.091 58.6299 219.712L57.3819 219.2C57.8939 217.899 58.7899 216.853 60.0699 216.064C61.3499 215.275 62.8432 214.88 64.5499 214.88ZM84.6984 232.192C82.885 232.192 81.285 231.819 79.8984 231.072C78.533 230.325 77.4664 229.301 76.6984 228C75.9517 226.699 75.5784 225.205 75.5784 223.52C75.5784 221.835 75.941 220.341 76.6664 219.04C77.413 217.739 78.4264 216.725 79.7064 216C81.0077 215.253 82.469 214.88 84.0904 214.88C85.733 214.88 87.1837 215.243 88.4424 215.968C89.701 216.693 90.6824 217.717 91.3864 219.04C92.1117 220.341 92.4744 221.867 92.4744 223.616C92.4744 223.744 92.4637 223.893 92.4424 224.064C92.4424 224.235 92.4317 224.395 92.4104 224.544H77.9784V222.336H90.8104L89.5624 223.104C89.5837 222.016 89.3597 221.045 88.8904 220.192C88.421 219.339 87.7704 218.677 86.9384 218.208C86.1277 217.717 85.1784 217.472 84.0904 217.472C83.0237 217.472 82.0744 217.717 81.2424 218.208C80.4104 218.677 79.7597 219.349 79.2904 220.224C78.821 221.077 78.5864 222.059 78.5864 223.168V223.68C78.5864 224.811 78.8424 225.824 79.3544 226.72C79.8877 227.595 80.6237 228.277 81.5624 228.768C82.501 229.259 83.5784 229.504 84.7944 229.504C85.797 229.504 86.7037 229.333 87.5144 228.992C88.3464 228.651 89.0717 228.139 89.6904 227.456L91.3864 229.44C90.6184 230.336 89.6584 231.019 88.5064 231.488C87.3757 231.957 86.1064 232.192 84.6984 232.192ZM102.564 232.192C100.857 232.192 99.5348 231.733 98.5961 230.816C97.6575 229.899 97.1881 228.587 97.1881 226.88V211.328H100.26V226.752C100.26 227.669 100.484 228.373 100.932 228.864C101.401 229.355 102.063 229.6 102.916 229.6C103.876 229.6 104.676 229.333 105.316 228.8L106.276 231.008C105.807 231.413 105.241 231.712 104.58 231.904C103.94 232.096 103.268 232.192 102.564 232.192ZM94.3081 217.568V215.04H105.124V217.568H94.3081ZM119.046 214.88C120.433 214.88 121.649 215.147 122.694 215.68C123.761 216.213 124.593 217.024 125.19 218.112C125.787 219.2 126.086 220.576 126.086 222.24V232H123.014V222.592C123.014 220.949 122.609 219.712 121.798 218.88C121.009 218.048 119.889 217.632 118.438 217.632C117.35 217.632 116.401 217.845 115.59 218.272C114.779 218.699 114.15 219.328 113.702 220.16C113.275 220.992 113.062 222.027 113.062 223.264V232H109.99V208.256H113.062V219.616L112.454 218.4C113.009 217.291 113.862 216.427 115.014 215.808C116.166 215.189 117.51 214.88 119.046 214.88ZM131.771 232V215.04H134.843V232H131.771ZM133.307 211.776C132.71 211.776 132.209 211.584 131.803 211.2C131.419 210.816 131.227 210.347 131.227 209.792C131.227 209.216 131.419 208.736 131.803 208.352C132.209 207.968 132.71 207.776 133.307 207.776C133.905 207.776 134.395 207.968 134.779 208.352C135.185 208.715 135.387 209.173 135.387 209.728C135.387 210.304 135.195 210.795 134.811 211.2C134.427 211.584 133.926 211.776 133.307 211.776ZM149.765 214.88C151.152 214.88 152.368 215.147 153.413 215.68C154.48 216.213 155.312 217.024 155.909 218.112C156.506 219.2 156.805 220.576 156.805 222.24V232H153.733V222.592C153.733 220.949 153.328 219.712 152.517 218.88C151.728 218.048 150.608 217.632 149.157 217.632C148.069 217.632 147.12 217.845 146.309 218.272C145.498 218.699 144.869 219.328 144.421 220.16C143.994 220.992 143.781 222.027 143.781 223.264V232H140.709V215.04H143.653V219.616L143.173 218.4C143.728 217.291 144.581 216.427 145.733 215.808C146.885 215.189 148.229 214.88 149.765 214.88ZM169.914 238.4C168.357 238.4 166.842 238.176 165.37 237.728C163.919 237.301 162.735 236.683 161.818 235.872L163.29 233.504C164.079 234.187 165.05 234.72 166.202 235.104C167.354 235.509 168.559 235.712 169.818 235.712C171.823 235.712 173.295 235.243 174.234 234.304C175.173 233.365 175.642 231.936 175.642 230.016V226.432L175.962 223.072L175.802 219.68V215.04H178.714V229.696C178.714 232.683 177.967 234.88 176.474 236.288C174.981 237.696 172.794 238.4 169.914 238.4ZM169.53 231.296C167.887 231.296 166.415 230.955 165.114 230.272C163.834 229.568 162.81 228.597 162.042 227.36C161.295 226.123 160.922 224.693 160.922 223.072C160.922 221.429 161.295 220 162.042 218.784C162.81 217.547 163.834 216.587 165.114 215.904C166.415 215.221 167.887 214.88 169.53 214.88C170.981 214.88 172.303 215.179 173.498 215.776C174.693 216.352 175.642 217.248 176.346 218.464C177.071 219.68 177.434 221.216 177.434 223.072C177.434 224.907 177.071 226.432 176.346 227.648C175.642 228.864 174.693 229.781 173.498 230.4C172.303 230.997 170.981 231.296 169.53 231.296ZM169.882 228.608C171.013 228.608 172.015 228.373 172.89 227.904C173.765 227.435 174.447 226.784 174.938 225.952C175.45 225.12 175.706 224.16 175.706 223.072C175.706 221.984 175.45 221.024 174.938 220.192C174.447 219.36 173.765 218.72 172.89 218.272C172.015 217.803 171.013 217.568 169.882 217.568C168.751 217.568 167.738 217.803 166.842 218.272C165.967 218.72 165.274 219.36 164.762 220.192C164.271 221.024 164.026 221.984 164.026 223.072C164.026 224.16 164.271 225.12 164.762 225.952C165.274 226.784 165.967 227.435 166.842 227.904C167.738 228.373 168.751 228.608 169.882 228.608ZM196.762 232L190.458 215.04H193.37L198.97 230.4H197.594L203.418 215.04H206.01L211.706 230.4H210.362L216.09 215.04H218.842L212.506 232H209.562L204.218 217.984H205.114L199.706 232H196.762ZM229.042 232.192C227.229 232.192 225.629 231.819 224.242 231.072C222.877 230.325 221.81 229.301 221.042 228C220.295 226.699 219.922 225.205 219.922 223.52C219.922 221.835 220.285 220.341 221.01 219.04C221.757 217.739 222.77 216.725 224.05 216C225.351 215.253 226.813 214.88 228.434 214.88C230.077 214.88 231.527 215.243 232.786 215.968C234.045 216.693 235.026 217.717 235.73 219.04C236.455 220.341 236.818 221.867 236.818 223.616C236.818 223.744 236.807 223.893 236.786 224.064C236.786 224.235 236.775 224.395 236.754 224.544H222.322V222.336H235.154L233.906 223.104C233.927 222.016 233.703 221.045 233.234 220.192C232.765 219.339 232.114 218.677 231.282 218.208C230.471 217.717 229.522 217.472 228.434 217.472C227.367 217.472 226.418 217.717 225.586 218.208C224.754 218.677 224.103 219.349 223.634 220.224C223.165 221.077 222.93 222.059 222.93 223.168V223.68C222.93 224.811 223.186 225.824 223.698 226.72C224.231 227.595 224.967 228.277 225.906 228.768C226.845 229.259 227.922 229.504 229.138 229.504C230.141 229.504 231.047 229.333 231.858 228.992C232.69 228.651 233.415 228.139 234.034 227.456L235.73 229.44C234.962 230.336 234.002 231.019 232.85 231.488C231.719 231.957 230.45 232.192 229.042 232.192ZM250.14 214.88C251.527 214.88 252.743 215.147 253.788 215.68C254.855 216.213 255.687 217.024 256.284 218.112C256.881 219.2 257.18 220.576 257.18 222.24V232H254.108V222.592C254.108 220.949 253.703 219.712 252.892 218.88C252.103 218.048 250.983 217.632 249.532 217.632C248.444 217.632 247.495 217.845 246.684 218.272C245.873 218.699 245.244 219.328 244.796 220.16C244.369 220.992 244.156 222.027 244.156 223.264V232H241.084V215.04H244.028V219.616L243.548 218.4C244.103 217.291 244.956 216.427 246.108 215.808C247.26 215.189 248.604 214.88 250.14 214.88ZM268.689 232.192C266.982 232.192 265.66 231.733 264.721 230.816C263.782 229.899 263.313 228.587 263.313 226.88V211.328H266.385V226.752C266.385 227.669 266.609 228.373 267.057 228.864C267.526 229.355 268.188 229.6 269.041 229.6C270.001 229.6 270.801 229.333 271.441 228.8L272.401 231.008C271.932 231.413 271.366 231.712 270.705 231.904C270.065 232.096 269.393 232.192 268.689 232.192ZM260.433 217.568V215.04H271.249V217.568H260.433ZM288.293 232L281.989 215.04H284.901L290.501 230.4H289.125L294.949 215.04H297.541L303.237 230.4H301.893L307.621 215.04H310.373L304.037 232H301.093L295.749 217.984H296.645L291.237 232H288.293ZM313.49 232V215.04H316.434V219.648L316.146 218.496C316.615 217.323 317.405 216.427 318.514 215.808C319.623 215.189 320.989 214.88 322.61 214.88V217.856C322.482 217.835 322.354 217.824 322.226 217.824C322.119 217.824 322.013 217.824 321.906 217.824C320.263 217.824 318.962 218.315 318.002 219.296C317.042 220.277 316.562 221.696 316.562 223.552V232H313.49ZM333.504 232.192C331.797 232.192 330.283 231.819 328.96 231.072C327.637 230.325 326.592 229.301 325.824 228C325.056 226.677 324.672 225.184 324.672 223.52C324.672 221.835 325.056 220.341 325.824 219.04C326.592 217.739 327.637 216.725 328.96 216C330.283 215.253 331.797 214.88 333.504 214.88C335.189 214.88 336.693 215.253 338.016 216C339.36 216.725 340.405 217.739 341.152 219.04C341.92 220.32 342.304 221.813 342.304 223.52C342.304 225.205 341.92 226.699 341.152 228C340.405 229.301 339.36 230.325 338.016 231.072C336.693 231.819 335.189 232.192 333.504 232.192ZM333.504 229.504C334.592 229.504 335.563 229.259 336.416 228.768C337.291 228.277 337.973 227.584 338.464 226.688C338.955 225.771 339.2 224.715 339.2 223.52C339.2 222.304 338.955 221.259 338.464 220.384C337.973 219.488 337.291 218.795 336.416 218.304C335.563 217.813 334.592 217.568 333.504 217.568C332.416 217.568 331.445 217.813 330.592 218.304C329.739 218.795 329.056 219.488 328.544 220.384C328.032 221.259 327.776 222.304 327.776 223.52C327.776 224.715 328.032 225.771 328.544 226.688C329.056 227.584 329.739 228.277 330.592 228.768C331.445 229.259 332.416 229.504 333.504 229.504ZM355.609 214.88C356.995 214.88 358.211 215.147 359.257 215.68C360.323 216.213 361.155 217.024 361.753 218.112C362.35 219.2 362.649 220.576 362.649 222.24V232H359.577V222.592C359.577 220.949 359.171 219.712 358.361 218.88C357.571 218.048 356.451 217.632 355.001 217.632C353.913 217.632 352.963 217.845 352.153 218.272C351.342 218.699 350.713 219.328 350.265 220.16C349.838 220.992 349.625 222.027 349.625 223.264V232H346.553V215.04H349.497V219.616L349.017 218.4C349.571 217.291 350.425 216.427 351.577 215.808C352.729 215.189 354.073 214.88 355.609 214.88ZM375.758 238.4C374.201 238.4 372.686 238.176 371.214 237.728C369.763 237.301 368.579 236.683 367.662 235.872L369.134 233.504C369.923 234.187 370.894 234.72 372.046 235.104C373.198 235.509 374.403 235.712 375.662 235.712C377.667 235.712 379.139 235.243 380.078 234.304C381.017 233.365 381.486 231.936 381.486 230.016V226.432L381.806 223.072L381.646 219.68V215.04H384.558V229.696C384.558 232.683 383.811 234.88 382.318 236.288C380.825 237.696 378.638 238.4 375.758 238.4ZM375.374 231.296C373.731 231.296 372.259 230.955 370.958 230.272C369.678 229.568 368.654 228.597 367.886 227.36C367.139 226.123 366.766 224.693 366.766 223.072C366.766 221.429 367.139 220 367.886 218.784C368.654 217.547 369.678 216.587 370.958 215.904C372.259 215.221 373.731 214.88 375.374 214.88C376.825 214.88 378.147 215.179 379.342 215.776C380.537 216.352 381.486 217.248 382.19 218.464C382.915 219.68 383.278 221.216 383.278 223.072C383.278 224.907 382.915 226.432 382.19 227.648C381.486 228.864 380.537 229.781 379.342 230.4C378.147 230.997 376.825 231.296 375.374 231.296ZM375.726 228.608C376.857 228.608 377.859 228.373 378.734 227.904C379.609 227.435 380.291 226.784 380.782 225.952C381.294 225.12 381.55 224.16 381.55 223.072C381.55 221.984 381.294 221.024 380.782 220.192C380.291 219.36 379.609 218.72 378.734 218.272C377.859 217.803 376.857 217.568 375.726 217.568C374.595 217.568 373.582 217.803 372.686 218.272C371.811 218.72 371.118 219.36 370.606 220.192C370.115 221.024 369.87 221.984 369.87 223.072C369.87 224.16 370.115 225.12 370.606 225.952C371.118 226.784 371.811 227.435 372.686 227.904C373.582 228.373 374.595 228.608 375.726 228.608ZM391.164 232.192C390.566 232.192 390.054 231.989 389.628 231.584C389.201 231.157 388.988 230.624 388.988 229.984C388.988 229.344 389.201 228.821 389.628 228.416C390.054 228.011 390.566 227.808 391.164 227.808C391.74 227.808 392.23 228.011 392.636 228.416C393.062 228.821 393.276 229.344 393.276 229.984C393.276 230.624 393.062 231.157 392.636 231.584C392.23 231.989 391.74 232.192 391.164 232.192Z" fill="black"/>
</svg>
