<svg width="651" height="74" viewBox="0 0 651 74" fill="none" xmlns="http://www.w3.org/2000/svg">
<path d="M0 48V0.799997H2.4V48H0ZM9.6 48V0.799997H16.8V48H9.6ZM19.2 48V0.799997H21.6V48H19.2ZM24 48V0.799997H31.2V48H24ZM33.6 48V0.799997H36V48H33.6ZM38.4375 48V0.799997H40.8375V48H38.4375ZM48.0375 48V0.799997H50.4375V48H48.0375ZM52.8375 48V0.799997H55.2375V48H52.8375ZM62.4375 48V0.799997H64.8375V48H62.4375ZM72.0375 48V0.799997H74.4375V48H72.0375ZM76.8375 48V0.799997H84.0375V48H76.8375ZM91.2375 48V0.799997H93.6375V48H91.2375ZM96.0375 48V0.799997H98.4375V48H96.0375ZM100.838 48V0.799997H103.238V48H100.838ZM105.638 48V0.799997H112.838V48H105.638ZM75.9575 73.84C74.5175 73.84 73.3708 73.3067 72.5175 72.24C71.6642 71.1733 71.2642 69.6 71.3175 67.52V59.92H73.3975V67.52C73.3975 69.12 73.6908 70.2933 74.2775 71.04C74.8108 71.7867 75.5575 72.16 76.5175 72.16C77.5308 72.16 78.3842 71.7333 79.0775 70.88C79.8242 70.08 80.1975 68.9333 80.1975 67.44V59.92H82.2775V71.44C82.2775 71.92 82.2775 72.2933 82.2775 72.56C82.3308 72.88 82.4108 73.2 82.5175 73.52H80.5175C80.3575 73.2 80.2775 72.88 80.2775 72.56C80.2242 72.2933 80.1975 71.92 80.1975 71.44C79.7708 72.1867 79.1842 72.7733 78.4375 73.2C77.6908 73.6267 76.8642 73.84 75.9575 73.84ZM115.234 48V0.799997H117.634V48H115.234ZM124.834 48V0.799997H127.234V48H124.834ZM129.634 48V0.799997H132.034V48H129.634ZM139.234 48V0.799997H141.634V48H139.234ZM148.834 48V0.799997H151.234V48H148.834ZM153.634 48V0.799997H156.034V48H153.634ZM158.434 48V0.799997H160.834V48H158.434ZM163.234 48V0.799997H170.434V48H163.234ZM172.834 48V0.799997H175.234V48H172.834ZM182.434 48V0.799997H189.634V48H182.434ZM148.354 59.92H150.434V62.32C150.968 61.52 151.634 60.8533 152.434 60.32C153.234 59.84 154.088 59.6 154.994 59.6C156.221 59.6 157.208 60.0533 157.954 60.96C158.648 61.92 158.994 63.36 158.994 65.28V73.52H156.914V65.36C156.914 63.9733 156.701 62.9867 156.274 62.4C155.794 61.76 155.181 61.44 154.434 61.44C153.794 61.44 153.181 61.6267 152.594 62C151.954 62.3733 151.421 62.88 150.994 63.52C150.621 64.16 150.434 64.88 150.434 65.68V73.52H148.354V59.92ZM192.031 48V0.799997H194.431V48H192.031ZM201.631 48V0.799997H204.031V48H201.631ZM206.431 48V0.799997H208.831V48H206.431ZM216.031 48V0.799997H218.431V48H216.031ZM225.631 48V0.799997H228.031V48H225.631ZM230.431 48V0.799997H237.631V48H230.431ZM240.031 48V0.799997H247.231V48H240.031ZM249.631 48V0.799997H252.031V48H249.631ZM259.231 48V0.799997H261.631V48H259.231ZM264.031 48V0.799997H266.431V48H264.031ZM231.471 73.84C230.138 73.84 228.965 73.5467 227.951 72.96C226.938 72.32 226.138 71.4667 225.551 70.4C224.965 69.3333 224.671 68.1067 224.671 66.72C224.671 65.3867 224.965 64.1867 225.551 63.12C226.138 62.0533 226.938 61.2 227.951 60.56C228.965 59.9733 230.138 59.68 231.471 59.68C232.538 59.68 233.525 59.8933 234.431 60.32C235.285 60.7467 236.005 61.36 236.591 62.16L235.231 63.52L235.071 63.68L234.911 63.52C234.911 63.36 234.858 63.2 234.751 63.04C234.698 62.9333 234.565 62.7733 234.351 62.56C233.925 62.1867 233.471 61.92 232.991 61.76C232.458 61.5467 231.871 61.44 231.231 61.44C230.431 61.44 229.711 61.6533 229.071 62.08C228.378 62.5067 227.845 63.12 227.471 63.92C227.045 64.6667 226.831 65.5467 226.831 66.56C226.831 67.5733 227.045 68.5067 227.471 69.36C227.898 70.16 228.458 70.7733 229.151 71.2C229.898 71.68 230.698 71.92 231.551 71.92C232.938 71.92 234.138 71.36 235.151 70.24L236.351 71.68C235.018 73.12 233.391 73.84 231.471 73.84ZM268.828 48V0.799997H271.228V48H268.828ZM278.428 48V0.799997H280.828V48H278.428ZM283.228 48V0.799997H285.628V48H283.228ZM292.828 48V0.799997H295.228V48H292.828ZM302.428 48V0.799997H304.828V48H302.428ZM307.228 48V0.799997H314.428V48H307.228ZM316.828 48V0.799997H319.228V48H316.828ZM321.628 48V0.799997H328.828V48H321.628ZM331.228 48V0.799997H333.628V48H331.228ZM340.828 48V0.799997H343.228V48H340.828ZM307.228 73.76C306.001 73.76 304.908 73.4667 303.948 72.88C303.041 72.2933 302.321 71.4667 301.788 70.4C301.201 69.3333 300.908 68.1067 300.908 66.72C300.908 65.3333 301.201 64.1067 301.788 63.04C302.321 61.9733 303.041 61.1467 303.948 60.56C304.908 59.92 306.001 59.6 307.228 59.6C308.455 59.6 309.521 59.92 310.428 60.56C311.388 61.1467 312.135 61.9733 312.668 63.04C313.201 64.1067 313.468 65.3333 313.468 66.72C313.468 68.1067 313.201 69.3333 312.668 70.4C312.135 71.4667 311.388 72.2933 310.428 72.88C309.521 73.4667 308.455 73.76 307.228 73.76ZM307.228 72C307.975 72 308.668 71.76 309.308 71.28C309.895 70.8533 310.375 70.24 310.748 69.44C311.068 68.5867 311.228 67.6533 311.228 66.64C311.228 65.0933 310.855 63.84 310.108 62.88C309.361 61.92 308.401 61.44 307.228 61.44C306.055 61.44 305.095 61.92 304.348 62.88C303.601 63.84 303.228 65.0933 303.228 66.64C303.228 67.6533 303.388 68.5867 303.708 69.44C304.081 70.24 304.561 70.8533 305.148 71.28C305.735 71.76 306.428 72 307.228 72ZM345.625 48V0.799997H348.025V48H345.625ZM355.225 48V0.799997H357.625V48H355.225ZM360.025 48V0.799997H362.425V48H360.025ZM369.625 48V0.799997H372.025V48H369.625ZM379.225 48V0.799997H381.625V48H379.225ZM384.025 48V0.799997H391.225V48H384.025ZM393.625 48V0.799997H400.825V48H393.625ZM403.225 48V0.799997H405.625V48H403.225ZM408.025 48V0.799997H410.425V48H408.025ZM417.625 48V0.799997H420.025V48H417.625ZM377.705 59.92H379.705V61.28C380.025 60.8 380.425 60.4 380.905 60.08C381.385 59.76 381.892 59.6 382.425 59.6C383.012 59.6 383.545 59.7867 384.025 60.16C384.452 60.5333 384.718 61.0133 384.825 61.6C385.092 61.0133 385.518 60.5333 386.105 60.16C386.638 59.7867 387.252 59.6 387.945 59.6C388.798 59.6 389.465 59.92 389.945 60.56C390.372 61.2 390.558 62.0533 390.505 63.12V73.52H388.585V63.92C388.585 62.7467 388.478 62 388.265 61.68C388.052 61.36 387.732 61.2 387.305 61.2C386.932 61.2 386.585 61.36 386.265 61.68C385.945 62 385.678 62.4267 385.465 62.96C385.252 63.4933 385.145 64.0267 385.145 64.56V73.52H383.145V64.08C383.145 62.96 383.038 62.2133 382.825 61.84C382.612 61.4133 382.212 61.2 381.625 61.2C381.358 61.2 381.065 61.3333 380.745 61.6C380.425 61.8667 380.158 62.2667 379.945 62.8C379.785 63.28 379.705 63.84 379.705 64.48V73.52H377.705V59.92ZM422.422 48V0.799997H424.822V48H422.422ZM432.022 48V0.799997H434.422V48H432.022ZM436.822 48V0.799997H439.222V48H436.822ZM446.422 48V0.799997H448.822V48H446.422ZM456.022 48V0.799997H458.422V48H456.022ZM460.822 48V0.799997H468.022V48H460.822ZM470.422 48V0.799997H477.622V48H470.422ZM480.022 48V0.799997H482.422V48H480.022ZM484.822 48V0.799997H487.222V48H484.822ZM494.422 48V0.799997H496.822V48H494.422ZM454.502 59.92H456.502V61.28C456.822 60.8 457.222 60.4 457.702 60.08C458.182 59.76 458.689 59.6 459.222 59.6C459.809 59.6 460.342 59.7867 460.822 60.16C461.249 60.5333 461.515 61.0133 461.622 61.6C461.889 61.0133 462.315 60.5333 462.902 60.16C463.435 59.7867 464.049 59.6 464.742 59.6C465.595 59.6 466.262 59.92 466.742 60.56C467.169 61.2 467.355 62.0533 467.302 63.12V73.52H465.382V63.92C465.382 62.7467 465.275 62 465.062 61.68C464.849 61.36 464.529 61.2 464.102 61.2C463.729 61.2 463.382 61.36 463.062 61.68C462.742 62 462.475 62.4267 462.262 62.96C462.049 63.4933 461.942 64.0267 461.942 64.56V73.52H459.942V64.08C459.942 62.96 459.835 62.2133 459.622 61.84C459.409 61.4133 459.009 61.2 458.422 61.2C458.155 61.2 457.862 61.3333 457.542 61.6C457.222 61.8667 456.955 62.2667 456.742 62.8C456.582 63.28 456.502 63.84 456.502 64.48V73.52H454.502V59.92ZM499.219 48V0.799997H501.619V48H499.219ZM508.819 48V0.799997H511.219V48H508.819ZM513.619 48V0.799997H516.019V48H513.619ZM523.219 48V0.799997H525.619V48H523.219ZM532.819 48V0.799997H535.219V48H532.819ZM537.619 48V0.799997H544.819V48H537.619ZM547.219 48V0.799997H549.619V48H547.219ZM552.019 48V0.799997H559.219V48H552.019ZM561.619 48V0.799997H564.019V48H561.619ZM571.219 48V0.799997H573.619V48H571.219ZM537.619 73.76C536.392 73.76 535.299 73.4667 534.339 72.88C533.432 72.2933 532.712 71.4667 532.179 70.4C531.592 69.3333 531.299 68.1067 531.299 66.72C531.299 65.3333 531.592 64.1067 532.179 63.04C532.712 61.9733 533.432 61.1467 534.339 60.56C535.299 59.92 536.392 59.6 537.619 59.6C538.845 59.6 539.912 59.92 540.819 60.56C541.779 61.1467 542.525 61.9733 543.059 63.04C543.592 64.1067 543.859 65.3333 543.859 66.72C543.859 68.1067 543.592 69.3333 543.059 70.4C542.525 71.4667 541.779 72.2933 540.819 72.88C539.912 73.4667 538.845 73.76 537.619 73.76ZM537.619 72C538.365 72 539.059 71.76 539.699 71.28C540.285 70.8533 540.765 70.24 541.139 69.44C541.459 68.5867 541.619 67.6533 541.619 66.64C541.619 65.0933 541.245 63.84 540.499 62.88C539.752 61.92 538.792 61.44 537.619 61.44C536.445 61.44 535.485 61.92 534.739 62.88C533.992 63.84 533.619 65.0933 533.619 66.64C533.619 67.6533 533.779 68.5867 534.099 69.44C534.472 70.24 534.952 70.8533 535.539 71.28C536.125 71.76 536.819 72 537.619 72ZM576.016 48V0.799997H578.416V48H576.016ZM585.616 48V0.799997H588.016V48H585.616ZM590.416 48V0.799997H592.816V48H590.416ZM600.016 48V0.799997H602.416V48H600.016ZM609.616 48V0.799997H612.016V48H609.616ZM614.416 48V0.799997H616.816V48H614.416ZM619.216 48V0.799997H621.616V48H619.216ZM624.016 48V0.799997H631.216V48H624.016ZM633.616 48V0.799997H636.016V48H633.616ZM643.216 48V0.799997H650.416V48H643.216ZM609.136 59.92H611.216V62.32C611.749 61.52 612.416 60.8533 613.216 60.32C614.016 59.84 614.869 59.6 615.776 59.6C617.002 59.6 617.989 60.0533 618.736 60.96C619.429 61.92 619.776 63.36 619.776 65.28V73.52H617.696V65.36C617.696 63.9733 617.482 62.9867 617.056 62.4C616.576 61.76 615.962 61.44 615.216 61.44C614.576 61.44 613.962 61.6267 613.376 62C612.736 62.3733 612.202 62.88 611.776 63.52C611.402 64.16 611.216 64.88 611.216 65.68V73.52H609.136V59.92Z" fill="black"/>
</svg>
