<svg width="1171" height="132" viewBox="0 0 1171 132" fill="none" xmlns="http://www.w3.org/2000/svg">
<path d="M0 85V0.0399952H4.32V85H0ZM17.28 85V0.0399952H30.24V85H17.28ZM34.56 85V0.0399952H38.88V85H34.56ZM43.2 85V0.0399952H56.16V85H43.2ZM60.48 85V0.0399952H64.8V85H60.48ZM69.1875 85V0.0399952H73.5075V85H69.1875ZM86.4675 85V0.0399952H90.7875V85H86.4675ZM95.1075 85V0.0399952H99.4275V85H95.1075ZM112.388 85V0.0399952H116.708V85H112.388ZM129.668 85V0.0399952H133.988V85H129.668ZM138.308 85V0.0399952H151.268V85H138.308ZM164.228 85V0.0399952H168.548V85H164.228ZM172.868 85V0.0399952H177.188V85H172.868ZM181.508 85V0.0399952H185.828V85H181.508ZM190.148 85V0.0399952H203.108V85H190.148ZM136.724 131.512C134.132 131.512 132.068 130.552 130.532 128.632C128.996 126.712 128.276 123.88 128.372 120.136V106.456H132.116V120.136C132.116 123.016 132.644 125.128 133.7 126.472C134.66 127.816 136.004 128.488 137.732 128.488C139.556 128.488 141.092 127.72 142.34 126.184C143.684 124.744 144.356 122.68 144.356 119.992V106.456H148.1V127.192C148.1 128.056 148.1 128.728 148.1 129.208C148.196 129.784 148.34 130.36 148.531 130.936H144.932C144.644 130.36 144.5 129.784 144.5 129.208C144.404 128.728 144.356 128.056 144.356 127.192C143.588 128.536 142.531 129.592 141.188 130.36C139.844 131.128 138.356 131.512 136.724 131.512ZM207.422 85V0.0399952H211.742V85H207.422ZM224.702 85V0.0399952H229.022V85H224.702ZM233.342 85V0.0399952H237.662V85H233.342ZM250.622 85V0.0399952H254.942V85H250.622ZM267.902 85V0.0399952H272.222V85H267.902ZM276.542 85V0.0399952H280.862V85H276.542ZM285.182 85V0.0399952H289.502V85H285.182ZM293.822 85V0.0399952H306.782V85H293.822ZM311.102 85V0.0399952H315.422V85H311.102ZM328.382 85V0.0399952H341.342V85H328.382ZM267.038 106.456H270.782V110.776C271.742 109.336 272.942 108.136 274.382 107.176C275.822 106.312 277.358 105.88 278.99 105.88C281.198 105.88 282.974 106.696 284.318 108.328C285.566 110.056 286.19 112.648 286.19 116.104V130.936H282.446V116.248C282.446 113.752 282.062 111.976 281.294 110.92C280.43 109.768 279.326 109.192 277.982 109.192C276.83 109.192 275.726 109.528 274.67 110.2C273.518 110.872 272.558 111.784 271.79 112.936C271.118 114.088 270.782 115.384 270.782 116.824V130.936H267.038V106.456ZM345.656 85V0.0399952H349.976V85H345.656ZM362.936 85V0.0399952H367.256V85H362.936ZM371.576 85V0.0399952H375.896V85H371.576ZM388.856 85V0.0399952H393.176V85H388.856ZM406.136 85V0.0399952H410.456V85H406.136ZM414.776 85V0.0399952H427.736V85H414.776ZM432.056 85V0.0399952H445.016V85H432.056ZM449.336 85V0.0399952H453.656V85H449.336ZM466.616 85V0.0399952H470.936V85H466.616ZM475.256 85V0.0399952H479.576V85H475.256ZM416.648 131.512C414.248 131.512 412.136 130.984 410.312 129.928C408.488 128.776 407.048 127.24 405.992 125.32C404.936 123.4 404.408 121.192 404.408 118.696C404.408 116.296 404.936 114.136 405.992 112.216C407.048 110.296 408.488 108.76 410.312 107.608C412.136 106.552 414.248 106.024 416.648 106.024C418.568 106.024 420.344 106.408 421.976 107.176C423.512 107.944 424.808 109.048 425.864 110.488L423.416 112.936L423.128 113.224L422.84 112.936C422.84 112.648 422.744 112.36 422.552 112.072C422.456 111.88 422.216 111.592 421.832 111.208C421.064 110.536 420.248 110.056 419.384 109.768C418.424 109.384 417.368 109.192 416.216 109.192C414.776 109.192 413.48 109.576 412.328 110.344C411.08 111.112 410.12 112.216 409.448 113.656C408.68 115 408.296 116.584 408.296 118.408C408.296 120.232 408.68 121.912 409.448 123.448C410.216 124.888 411.224 125.992 412.472 126.76C413.816 127.624 415.256 128.056 416.792 128.056C419.288 128.056 421.448 127.048 423.272 125.032L425.432 127.624C423.032 130.216 420.104 131.512 416.648 131.512ZM483.891 85V0.0399952H488.211V85H483.891ZM501.171 85V0.0399952H505.491V85H501.171ZM509.811 85V0.0399952H514.131V85H509.811ZM527.091 85V0.0399952H531.411V85H527.091ZM544.371 85V0.0399952H548.691V85H544.371ZM553.011 85V0.0399952H565.971V85H553.011ZM570.291 85V0.0399952H574.611V85H570.291ZM578.931 85V0.0399952H591.891V85H578.931ZM596.211 85V0.0399952H600.531V85H596.211ZM613.491 85V0.0399952H617.811V85H613.491ZM553.011 131.368C550.803 131.368 548.835 130.84 547.107 129.784C545.475 128.728 544.179 127.24 543.219 125.32C542.163 123.4 541.635 121.192 541.635 118.696C541.635 116.2 542.163 113.992 543.219 112.072C544.179 110.152 545.475 108.664 547.107 107.608C548.835 106.456 550.803 105.88 553.011 105.88C555.219 105.88 557.139 106.456 558.771 107.608C560.499 108.664 561.843 110.152 562.803 112.072C563.763 113.992 564.243 116.2 564.243 118.696C564.243 121.192 563.763 123.4 562.803 125.32C561.843 127.24 560.499 128.728 558.771 129.784C557.139 130.84 555.219 131.368 553.011 131.368ZM553.011 128.2C554.355 128.2 555.603 127.768 556.755 126.904C557.811 126.136 558.675 125.032 559.347 123.592C559.923 122.056 560.211 120.376 560.211 118.552C560.211 115.768 559.539 113.512 558.195 111.784C556.851 110.056 555.123 109.192 553.011 109.192C550.899 109.192 549.171 110.056 547.827 111.784C546.483 113.512 545.811 115.768 545.811 118.552C545.811 120.376 546.099 122.056 546.675 123.592C547.347 125.032 548.211 126.136 549.267 126.904C550.323 127.768 551.571 128.2 553.011 128.2ZM622.125 85V0.0399952H626.445V85H622.125ZM639.405 85V0.0399952H643.725V85H639.405ZM648.045 85V0.0399952H652.365V85H648.045ZM665.325 85V0.0399952H669.645V85H665.325ZM682.605 85V0.0399952H686.925V85H682.605ZM691.245 85V0.0399952H704.205V85H691.245ZM708.525 85V0.0399952H721.485V85H708.525ZM725.805 85V0.0399952H730.125V85H725.805ZM734.445 85V0.0399952H738.765V85H734.445ZM751.725 85V0.0399952H756.045V85H751.725ZM679.869 106.456H683.469V108.904C684.045 108.04 684.765 107.32 685.629 106.744C686.493 106.168 687.405 105.88 688.365 105.88C689.421 105.88 690.381 106.216 691.245 106.888C692.013 107.56 692.493 108.424 692.685 109.48C693.165 108.424 693.933 107.56 694.989 106.888C695.949 106.216 697.053 105.88 698.301 105.88C699.837 105.88 701.037 106.456 701.901 107.608C702.669 108.76 703.005 110.296 702.909 112.216V130.936H699.453V113.656C699.453 111.544 699.261 110.2 698.877 109.624C698.493 109.048 697.917 108.76 697.149 108.76C696.477 108.76 695.853 109.048 695.277 109.624C694.701 110.2 694.221 110.968 693.837 111.928C693.453 112.888 693.261 113.848 693.261 114.808V130.936H689.661V113.944C689.661 111.928 689.469 110.584 689.085 109.912C688.701 109.144 687.981 108.76 686.925 108.76C686.445 108.76 685.917 109 685.341 109.48C684.765 109.96 684.285 110.68 683.901 111.64C683.613 112.504 683.469 113.512 683.469 114.664V130.936H679.869V106.456ZM760.359 85V0.0399952H764.679V85H760.359ZM777.639 85V0.0399952H781.959V85H777.639ZM786.279 85V0.0399952H790.599V85H786.279ZM803.559 85V0.0399952H807.879V85H803.559ZM820.839 85V0.0399952H825.159V85H820.839ZM829.479 85V0.0399952H842.439V85H829.479ZM846.759 85V0.0399952H859.719V85H846.759ZM864.039 85V0.0399952H868.359V85H864.039ZM872.679 85V0.0399952H876.999V85H872.679ZM889.959 85V0.0399952H894.279V85H889.959ZM818.103 106.456H821.703V108.904C822.279 108.04 822.999 107.32 823.863 106.744C824.727 106.168 825.639 105.88 826.599 105.88C827.655 105.88 828.615 106.216 829.479 106.888C830.247 107.56 830.727 108.424 830.919 109.48C831.399 108.424 832.167 107.56 833.223 106.888C834.183 106.216 835.287 105.88 836.535 105.88C838.071 105.88 839.271 106.456 840.135 107.608C840.903 108.76 841.239 110.296 841.143 112.216V130.936H837.687V113.656C837.687 111.544 837.495 110.2 837.111 109.624C836.727 109.048 836.151 108.76 835.383 108.76C834.711 108.76 834.087 109.048 833.511 109.624C832.935 110.2 832.455 110.968 832.071 111.928C831.687 112.888 831.495 113.848 831.495 114.808V130.936H827.895V113.944C827.895 111.928 827.703 110.584 827.319 109.912C826.935 109.144 826.215 108.76 825.159 108.76C824.679 108.76 824.151 109 823.575 109.48C822.999 109.96 822.519 110.68 822.135 111.64C821.847 112.504 821.703 113.512 821.703 114.664V130.936H818.103V106.456ZM898.594 85V0.0399952H902.914V85H898.594ZM915.874 85V0.0399952H920.194V85H915.874ZM924.514 85V0.0399952H928.834V85H924.514ZM941.794 85V0.0399952H946.114V85H941.794ZM959.074 85V0.0399952H963.394V85H959.074ZM967.714 85V0.0399952H980.674V85H967.714ZM984.994 85V0.0399952H989.314V85H984.994ZM993.634 85V0.0399952H1006.59V85H993.634ZM1010.91 85V0.0399952H1015.23V85H1010.91ZM1028.19 85V0.0399952H1032.51V85H1028.19ZM967.714 131.368C965.506 131.368 963.538 130.84 961.81 129.784C960.178 128.728 958.882 127.24 957.922 125.32C956.866 123.4 956.338 121.192 956.338 118.696C956.338 116.2 956.866 113.992 957.922 112.072C958.882 110.152 960.178 108.664 961.81 107.608C963.538 106.456 965.506 105.88 967.714 105.88C969.922 105.88 971.842 106.456 973.474 107.608C975.202 108.664 976.546 110.152 977.506 112.072C978.466 113.992 978.946 116.2 978.946 118.696C978.946 121.192 978.466 123.4 977.506 125.32C976.546 127.24 975.202 128.728 973.474 129.784C971.842 130.84 969.922 131.368 967.714 131.368ZM967.714 128.2C969.058 128.2 970.306 127.768 971.458 126.904C972.514 126.136 973.378 125.032 974.05 123.592C974.626 122.056 974.914 120.376 974.914 118.552C974.914 115.768 974.242 113.512 972.898 111.784C971.554 110.056 969.826 109.192 967.714 109.192C965.602 109.192 963.874 110.056 962.53 111.784C961.186 113.512 960.514 115.768 960.514 118.552C960.514 120.376 960.802 122.056 961.378 123.592C962.05 125.032 962.914 126.136 963.97 126.904C965.026 127.768 966.274 128.2 967.714 128.2ZM1036.83 85V0.0399952H1041.15V85H1036.83ZM1054.11 85V0.0399952H1058.43V85H1054.11ZM1062.75 85V0.0399952H1067.07V85H1062.75ZM1080.03 85V0.0399952H1084.35V85H1080.03ZM1097.31 85V0.0399952H1101.63V85H1097.31ZM1105.95 85V0.0399952H1110.27V85H1105.95ZM1114.59 85V0.0399952H1118.91V85H1114.59ZM1123.23 85V0.0399952H1136.19V85H1123.23ZM1140.51 85V0.0399952H1144.83V85H1140.51ZM1157.79 85V0.0399952H1170.75V85H1157.79ZM1096.44 106.456H1100.19V110.776C1101.15 109.336 1102.35 108.136 1103.79 107.176C1105.23 106.312 1106.76 105.88 1108.4 105.88C1110.6 105.88 1112.38 106.696 1113.72 108.328C1114.97 110.056 1115.6 112.648 1115.6 116.104V130.936H1111.85V116.248C1111.85 113.752 1111.47 111.976 1110.7 110.92C1109.84 109.768 1108.73 109.192 1107.39 109.192C1106.24 109.192 1105.13 109.528 1104.08 110.2C1102.92 110.872 1101.96 111.784 1101.2 112.936C1100.52 114.088 1100.19 115.384 1100.19 116.824V130.936H1096.44V106.456Z" fill="white"/>
</svg>
