<?xml version="1.0" encoding="utf-8"?>
<!-- Generator: Adobe Illustrator 21.0.2, SVG Export Plug-In . SVG Version: 6.00 Build 0)  -->
<svg version="1.1" id="Layer_1" xmlns="http://www.w3.org/2000/svg" xmlns:xlink="http://www.w3.org/1999/xlink" x="0px" y="0px"
	 width="35.8" height="22.4" viewBox="0 0 35.8 22.4" style="enable-background:new 0 0 35.8 22.4;" xml:space="preserve">
<style type="text/css">
	.st0{fill:#FFFDFD;}
	.st1{clip-path:url(#SVGID_4_);}
	.st2{fill:#253B80;}
	.st3{fill:#179BD7;}
	.st4{fill:#222D65;}
	.st5{clip-path:url(#SVGID_8_);}
</style>
<g>
	<path class="st0" d="M35.8,21.2c0,0.7-0.5,1.2-1.2,1.2H1.2c-0.7,0-1.2-0.5-1.2-1.2v-20C0,0.5,0.5,0,1.2,0h33.4
		c0.7,0,1.2,0.5,1.2,1.2V21.2L35.8,21.2z"/>
</g>
<g>
	<g id="XMLID_82_">
		<g id="XMLID_83_">
			<g>
				<defs>
					<rect id="SVGID_1_" x="2.4" y="6.7" width="31.2" height="8.3"/>
				</defs>
				<clipPath id="SVGID_2_">
					<use xlink:href="#SVGID_1_"  style="overflow:visible;"/>
				</clipPath>
			</g>
		</g>
	</g>
	<g>
		<g>
			<g id="XMLID_75_">
				<defs>
					<rect id="SVGID_3_" x="2.4" y="6.7" width="31.2" height="8.3"/>
				</defs>
				<clipPath id="SVGID_4_">
					<use xlink:href="#SVGID_3_"  style="overflow:visible;"/>
				</clipPath>
				<g id="XMLID_76_" class="st1">
					<g id="XMLID_78_">
						<defs>
							<rect id="SVGID_5_" x="2.4" y="6.7" width="31.2" height="8.3"/>
						</defs>
						<clipPath id="SVGID_6_">
							<use xlink:href="#SVGID_5_"  style="overflow:visible;"/>
						</clipPath>
					</g>
				</g>
			</g>
			<g id="XMLID_12_">
				<g id="XMLID_13_">
					<g id="XMLID_14_">
						<g id="XMLID_15_">
							<path id="XMLID_57_" class="st2" d="M14.3,10c-0.1,0.6-0.6,0.6-1,0.6H13l0.2-1.2c0-0.1,0.1-0.1,0.1-0.1h0.1
								c0.3,0,0.6,0,0.8,0.2C14.3,9.7,14.3,9.8,14.3,10z M14.1,8.4h-1.7c-0.1,0-0.2,0.1-0.2,0.2L11.5,13c0,0.1,0.1,0.2,0.1,0.2h0.8
								c0.1,0,0.2-0.1,0.2-0.2l0.2-1.2c0-0.1,0.1-0.2,0.2-0.2h0.5c1.1,0,1.8-0.5,2-1.6c0.1-0.5,0-0.9-0.2-1.1
								C15.1,8.6,14.6,8.4,14.1,8.4z"/>
							<path id="XMLID_54_" class="st2" d="M18.1,11.6c-0.1,0.5-0.5,0.8-0.9,0.8c-0.2,0-0.4-0.1-0.6-0.2c-0.1-0.1-0.2-0.4-0.1-0.6
								c0.1-0.5,0.5-0.8,0.9-0.8c0.2,0,0.4,0.1,0.6,0.2C18,11.2,18.1,11.4,18.1,11.6z M19.2,10h-0.8c-0.1,0-0.1,0.1-0.1,0.1v0.2
								l-0.1-0.1c-0.2-0.3-0.6-0.3-1-0.3c-0.9,0-1.7,0.7-1.8,1.7c-0.1,0.5,0,0.9,0.3,1.3c0.3,0.3,0.6,0.4,1,0.4
								c0.7,0,1.1-0.5,1.1-0.5V13c0,0.1,0.1,0.2,0.1,0.2h0.7c0.1,0,0.2-0.1,0.2-0.2l0.4-2.8C19.4,10.1,19.3,10,19.2,10z"/>
							<path id="XMLID_33_" class="st2" d="M23.6,10h-0.8c-0.1,0-0.2,0-0.2,0.1l-1.1,1.7L21,10.2c0-0.1-0.1-0.2-0.2-0.2h-0.9
								c-0.1,0-0.2,0.1-0.1,0.2l0.9,2.7l-0.9,1.2c-0.1,0.1,0,0.2,0.1,0.2h0.8c0.1,0,0.2,0,0.2-0.1l2.8-4C23.8,10.1,23.7,10,23.6,10z
								"/>
							<path id="XMLID_38_" class="st3" d="M26.5,10c-0.1,0.6-0.6,0.6-1,0.6h-0.3l0.2-1.2c0-0.1,0.1-0.1,0.1-0.1h0.1
								c0.3,0,0.6,0,0.8,0.2S26.6,9.8,26.5,10z M26.3,8.4h-1.7c-0.1,0-0.2,0.1-0.2,0.2L23.7,13c0,0.1,0.1,0.2,0.1,0.2h0.9
								c0.1,0,0.2-0.1,0.2-0.1l0.2-1.3c0-0.1,0.1-0.2,0.2-0.2h0.5c1.1,0,1.8-0.5,2-1.6c0.1-0.5,0-0.9-0.2-1.1
								C27.4,8.6,26.9,8.4,26.3,8.4z"/>
							<path id="XMLID_21_" class="st3" d="M30.3,11.6c-0.1,0.5-0.5,0.8-0.9,0.8c-0.2,0-0.4-0.1-0.6-0.2c-0.1-0.1-0.2-0.4-0.1-0.6
								c0.1-0.5,0.5-0.8,0.9-0.8c0.2,0,0.4,0.1,0.6,0.2C30.3,11.2,30.4,11.4,30.3,11.6z M31.5,10h-0.8c-0.1,0-0.1,0.1-0.1,0.1v0.2
								l-0.1-0.1c-0.2-0.3-0.6-0.3-1-0.3c-0.9,0-1.7,0.7-1.8,1.7c-0.1,0.5,0,0.9,0.3,1.3c0.3,0.3,0.6,0.4,1,0.4
								c0.7,0,1.1-0.5,1.1-0.5V13c0,0.1,0.1,0.2,0.1,0.2h0.7c0.1,0,0.2-0.1,0.2-0.2l0.4-2.8C31.7,10.1,31.6,10,31.5,10z"/>
							<path id="XMLID_28_" class="st3" d="M32.5,8.5L31.8,13c0,0.1,0.1,0.2,0.1,0.2h0.7c0.1,0,0.2-0.1,0.2-0.2l0.7-4.4
								c0-0.1-0.1-0.2-0.1-0.2h-0.8C32.5,8.4,32.5,8.5,32.5,8.5z"/>
							<path id="XMLID_27_" class="st2" d="M4.3,14.1l0.1-0.8H4.1H2.7l1-6.2l0,0c0,0,0,0,0.1,0h2.4c0.8,0,1.3,0.2,1.6,0.5
								C7.9,7.8,8,7.9,8.1,8.1c0,0.2,0,0.4,0,0.7l0,0V9l0.1,0.1c0.1,0.1,0.2,0.1,0.3,0.2c0.1,0.1,0.2,0.3,0.2,0.5s0,0.4,0,0.7
								c-0.1,0.3-0.2,0.6-0.3,0.8c-0.1,0.2-0.3,0.4-0.5,0.5S7.5,12,7.3,12.1s-0.5,0.1-0.8,0.1H6.3c-0.1,0-0.3,0-0.4,0.1
								s-0.2,0.2-0.2,0.3v0.1l-0.2,1.5v0.1l0,0l0,0H4.3V14.1z"/>
							<path id="XMLID_26_" class="st3" d="M8.2,8.7v0.1C7.9,10.4,6.8,11,5.5,11H4.8c-0.2,0-0.3,0.1-0.3,0.3l-0.4,2.3L4,14.2
								c0,0.1,0.1,0.2,0.2,0.2h1.2c0.1,0,0.3-0.1,0.3-0.2v-0.1l0.2-1.5v-0.1c0-0.1,0.1-0.2,0.3-0.2h0.2c1.2,0,2.1-0.5,2.4-1.9
								C8.9,9.8,8.9,9.3,8.6,9C8.5,8.8,8.4,8.7,8.2,8.7z"/>
							<path id="XMLID_25_" class="st4" d="M7.9,8.5H7.8c-0.1,0-0.1,0-0.2,0c-0.2,0-0.4,0-0.6,0H5.1H5c-0.1,0-0.1,0.1-0.2,0.2
								l-0.4,2.5v0.1c0-0.2,0.2-0.3,0.3-0.3h0.7c1.4,0,2.4-0.6,2.7-2.2V8.7C8.1,8.6,8.1,8.6,7.9,8.5L7.9,8.5z"/>
							<path id="XMLID_24_" class="st2" d="M4.8,8.7c0-0.1,0.1-0.2,0.2-0.2h0.1H7c0.2,0,0.4,0,0.6,0c0.1,0,0.1,0,0.2,0s0.1,0,0.1,0
								s0,0,0.1,0s0.2,0.1,0.3,0.1c0.1-0.6,0-1-0.3-1.4C7.6,6.8,7,6.6,6.2,6.6H3.8c-0.2,0-0.3,0.1-0.3,0.3l-1,6.2
								c0,0.1,0.1,0.2,0.2,0.2h1.5L4.6,11L4.8,8.7z"/>
						</g>
					</g>
				</g>
			</g>
			<g>
				<g id="XMLID_4_">
					<g id="XMLID_5_">
						<defs>
							<polyline id="SVGID_7_" points="33.7,6.7 33.7,15 2.4,15 2.4,6.7 							"/>
						</defs>
						<clipPath id="SVGID_8_">
							<use xlink:href="#SVGID_7_"  style="overflow:visible;"/>
						</clipPath>
						<g id="XMLID_6_" class="st5">
							<g id="XMLID_8_">
								<defs>
									<polyline id="SVGID_9_" points="33.7,6.7 33.7,15 2.4,15 2.4,6.7 									"/>
								</defs>
								<clipPath id="SVGID_10_">
									<use xlink:href="#SVGID_9_"  style="overflow:visible;"/>
								</clipPath>
							</g>
						</g>
					</g>
				</g>
			</g>
		</g>
	</g>
</g>
</svg>
